{
    "asset" : {
        "generator" : "Khronos glTF Blender I/O v1.6.16",
        "version" : "2.0"
    },
    "scene" : 0,
    "scenes" : [
        {
            "name" : "Scene",
            "nodes" : [
                0,
                2,
                3,
                4,
                5,
                6
            ]
        }
    ],
    "nodes" : [
        {
            "name" : "Light",
            "rotation" : [
                0.16907575726509094,
                0.7558803558349609,
                -0.27217137813568115,
                0.570947527885437
            ],
            "translation" : [
                4.076245307922363,
                5.903861999511719,
                -1.0054539442062378
            ]
        },
        {
            "name" : "Empty.001",
            "rotation" : [
                -0.689842700958252,
                0.006241954397410154,
                -0.00594823295250535,
                0.7239079475402832
            ],
            "translation" : [
                -0.02506428211927414,
                -11.265718460083008,
                -0.08271721005439758
            ]
        },
        {
            "children" : [
                1
            ],
            "name" : "Camera",
            "rotation" : [
                -0.6986475586891174,
                0.2104051411151886,
                -0.22801242768764496,
                -0.644694983959198
            ],
            "translation" : [
                -4.243560791015625,
                -0.6004170775413513,
                5.672943592071533
            ]
        },
        {
            "mesh" : 0,
            "name" : "Plane.001",
            "rotation" : [
                0,
                -0.3420201539993286,
                0,
                0.9396927356719971
            ]
        },
        {
            "name" : "Area",
            "rotation" : [
                0.5671068429946899,
                -0.21572071313858032,
                0.0749581828713417,
                0.7913505434989929
            ],
            "translation" : [
                -1.3861091136932373,
                1.398763656616211,
                2.700701951980591
            ]
        },
        {
            "name" : "Area.001",
            "rotation" : [
                0.5430305600166321,
                0.6078453660011292,
                -0.16198402643203735,
                0.5562400817871094
            ],
            "translation" : [
                3.0373315811157227,
                1.5326374769210815,
                1.3210575580596924
            ]
        },
        {
            "name" : "Area.002",
            "rotation" : [
                -0.6229193210601807,
                -0.3070845901966095,
                0.22720828652381897,
                0.6826764345169067
            ],
            "translation" : [
                0.45762747526168823,
                0.5824910402297974,
                -2.9557507038116455
            ]
        }
    ],
    "animations" : [
        {
            "channels" : [
                {
                    "sampler" : 0,
                    "target" : {
                        "node" : 3,
                        "path" : "rotation"
                    }
                }
            ],
            "name" : "Plane.001Action",
            "samplers" : [
                {
                    "input" : 4,
                    "interpolation" : "LINEAR",
                    "output" : 5
                }
            ]
        }
    ],
    "materials" : [
        {
            "doubleSided" : true,
            "name" : "cw_2lFGC_400x400.jpg_mesh",
            "pbrMetallicRoughness" : {
                "baseColorTexture" : {
                    "index" : 0
                },
                "metallicFactor" : 0.7468109130859375,
                "roughnessFactor" : 0
            }
        }
    ],
    "meshes" : [
        {
            "name" : "Plane.001",
            "primitives" : [
                {
                    "attributes" : {
                        "POSITION" : 0,
                        "NORMAL" : 1,
                        "TEXCOORD_0" : 2
                    },
                    "indices" : 3,
                    "material" : 0
                }
            ]
        }
    ],
    "textures" : [
        {
            "sampler" : 0,
            "source" : 0
        }
    ],
    "images" : [
        {
            "bufferView" : 4,
            "mimeType" : "image/jpeg",
            "name" : "cw_2lFGC_400x400"
        }
    ],
    "accessors" : [
        {
            "bufferView" : 0,
            "componentType" : 5126,
            "count" : 10620,
            "max" : [
                0.9846932888031006,
                0.8108599185943604,
                -0.08325660228729248
            ],
            "min" : [
                -0.9731012582778931,
                -0.9878401756286621,
                -0.25764548778533936
            ],
            "type" : "VEC3"
        },
        {
            "bufferView" : 1,
            "componentType" : 5126,
            "count" : 10620,
            "type" : "VEC3"
        },
        {
            "bufferView" : 2,
            "componentType" : 5126,
            "count" : 10620,
            "type" : "VEC2"
        },
        {
            "bufferView" : 3,
            "componentType" : 5123,
            "count" : 31752,
            "type" : "SCALAR"
        },
        {
            "bufferView" : 5,
            "componentType" : 5126,
            "count" : 301,
            "max" : [
                10.033333333333333
            ],
            "min" : [
                0.03333333333333333
            ],
            "type" : "SCALAR"
        },
        {
            "bufferView" : 6,
            "componentType" : 5126,
            "count" : 301,
            "type" : "VEC4"
        }
    ],
    "bufferViews" : [
        {
            "buffer" : 0,
            "byteLength" : 127440,
            "byteOffset" : 0
        },
        {
            "buffer" : 0,
            "byteLength" : 127440,
            "byteOffset" : 127440
        },
        {
            "buffer" : 0,
            "byteLength" : 84960,
            "byteOffset" : 254880
        },
        {
            "buffer" : 0,
            "byteLength" : 63504,
            "byteOffset" : 339840
        },
        {
            "buffer" : 0,
            "byteLength" : 21408,
            "byteOffset" : 403344
        },
        {
            "buffer" : 0,
            "byteLength" : 1204,
            "byteOffset" : 424752
        },
        {
            "buffer" : 0,
            "byteLength" : 4816,
            "byteOffset" : 425956
        }
    ],
    "samplers" : [
        {
            "magFilter" : 9729,
            "minFilter" : 9987
        }
    ],
    "buffers" : [
        {
            "byteLength" : 430772,
            "uri" : "data:application/octet-stream;base64,"
        }
    ]
}
