{
    "asset" : {
        "generator" : "Khronos glTF Blender I/O v1.6.16",
        "version" : "2.0"
    },
    "scene" : 0,
    "scenes" : [
        {
            "name" : "Scene",
            "nodes" : [
                0,
                1,
                2,
                3
            ]
        }
    ],
    "nodes" : [
        {
            "mesh" : 0,
            "name" : "Plane",
            "translation" : [
                0,
                0.1857859194278717,
                0
            ]
        },
        {
            "name" : "Area",
            "rotation" : [
                -0.35698574781417847,
                0.03389148786664009,
                0.9334354400634766,
                0.01052617933601141
            ],
            "scale" : [
                -2.2506704330444336,
                -2.2506704330444336,
                -2.2506704330444336
            ],
            "translation" : [
                -1.0460336208343506,
                2.6947219371795654,
                0.6858335733413696
            ]
        },
        {
            "mesh" : 1,
            "name" : "Plane.001",
            "translation" : [
                0,
                -0.5247476100921631,
                0
            ]
        },
        {
            "mesh" : 2,
            "name" : "Plane.003",
            "translation" : [
                0,
                -1.2429609298706055,
                0
            ]
        }
    ],
    "materials" : [
        {
            "alphaCutoff" : 0.5,
            "alphaMode" : "MASK",
            "doubleSided" : true,
            "name" : "Material.001",
            "pbrMetallicRoughness" : {
                "baseColorTexture" : {
                    "index" : 0
                },
                "metallicFactor" : 0,
                "roughnessFactor" : 0.5
            }
        },
        {
            "alphaCutoff" : 0.5,
            "alphaMode" : "MASK",
            "doubleSided" : true,
            "name" : "Material.002",
            "pbrMetallicRoughness" : {
                "baseColorFactor" : [
                    0.800000011920929,
                    0.800000011920929,
                    0.800000011920929,
                    1
                ],
                "metallicFactor" : 0,
                "roughnessFactor" : 0
            }
        },
        {
            "alphaCutoff" : 0.5,
            "alphaMode" : "MASK",
            "doubleSided" : true,
            "name" : "Material.005",
            "pbrMetallicRoughness" : {
                "baseColorFactor" : [
                    0.08688433468341827,
                    0.08688433468341827,
                    0.08688433468341827,
                    0.7583333253860474
                ],
                "metallicFactor" : 0,
                "roughnessFactor" : 0
            }
        }
    ],
    "meshes" : [
        {
            "name" : "Plane",
            "primitives" : [
                {
                    "attributes" : {
                        "POSITION" : 0,
                        "NORMAL" : 1,
                        "TEXCOORD_0" : 2
                    },
                    "indices" : 3,
                    "material" : 0
                }
            ]
        },
        {
            "name" : "Plane.001",
            "primitives" : [
                {
                    "attributes" : {
                        "POSITION" : 4,
                        "NORMAL" : 5,
                        "TEXCOORD_0" : 6
                    },
                    "indices" : 7,
                    "material" : 1
                }
            ]
        },
        {
            "name" : "Plane.005",
            "primitives" : [
                {
                    "attributes" : {
                        "POSITION" : 8,
                        "NORMAL" : 9,
                        "TEXCOORD_0" : 10
                    },
                    "indices" : 11,
                    "material" : 2
                }
            ]
        }
    ],
    "textures" : [
        {
            "sampler" : 0,
            "source" : 0
        }
    ],
    "images" : [
        {
            "bufferView" : 4,
            "mimeType" : "image/png",
            "name" : "2021 Twitter logo - blue"
        }
    ],
    "accessors" : [
        {
            "bufferView" : 0,
            "componentType" : 5126,
            "count" : 4,
            "max" : [
                1,
                0,
                1
            ],
            "min" : [
                -1,
                0,
                -1
            ],
            "type" : "VEC3"
        },
        {
            "bufferView" : 1,
            "componentType" : 5126,
            "count" : 4,
            "type" : "VEC3"
        },
        {
            "bufferView" : 2,
            "componentType" : 5126,
            "count" : 4,
            "type" : "VEC2"
        },
        {
            "bufferView" : 3,
            "componentType" : 5123,
            "count" : 6,
            "type" : "SCALAR"
        },
        {
            "bufferView" : 5,
            "componentType" : 5126,
            "count" : 470,
            "max" : [
                1.145814061164856,
                0.041554614901542664,
                1.1458139419555664
            ],
            "min" : [
                -1.145814061164856,
                1.612136912854112e-08,
                -1.145814061164856
            ],
            "type" : "VEC3"
        },
        {
            "bufferView" : 6,
            "componentType" : 5126,
            "count" : 470,
            "type" : "VEC3"
        },
        {
            "bufferView" : 7,
            "componentType" : 5126,
            "count" : 470,
            "type" : "VEC2"
        },
        {
            "bufferView" : 8,
            "componentType" : 5123,
            "count" : 840,
            "type" : "SCALAR"
        },
        {
            "bufferView" : 9,
            "componentType" : 5126,
            "count" : 224,
            "max" : [
                1.145814061164856,
                0.041554614901542664,
                1.1458139419555664
            ],
            "min" : [
                -1.145814061164856,
                1.612136912854112e-08,
                -1.145814061164856
            ],
            "type" : "VEC3"
        },
        {
            "bufferView" : 10,
            "componentType" : 5126,
            "count" : 224,
            "type" : "VEC3"
        },
        {
            "bufferView" : 11,
            "componentType" : 5126,
            "count" : 224,
            "type" : "VEC2"
        },
        {
            "bufferView" : 12,
            "componentType" : 5123,
            "count" : 492,
            "type" : "SCALAR"
        }
    ],
    "bufferViews" : [
        {
            "buffer" : 0,
            "byteLength" : 48,
            "byteOffset" : 0
        },
        {
            "buffer" : 0,
            "byteLength" : 48,
            "byteOffset" : 48
        },
        {
            "buffer" : 0,
            "byteLength" : 32,
            "byteOffset" : 96
        },
        {
            "buffer" : 0,
            "byteLength" : 12,
            "byteOffset" : 128
        },
        {
            "buffer" : 0,
            "byteLength" : 19683,
            "byteOffset" : 140
        },
        {
            "buffer" : 0,
            "byteLength" : 5640,
            "byteOffset" : 19824
        },
        {
            "buffer" : 0,
            "byteLength" : 5640,
            "byteOffset" : 25464
        },
        {
            "buffer" : 0,
            "byteLength" : 3760,
            "byteOffset" : 31104
        },
        {
            "buffer" : 0,
            "byteLength" : 1680,
            "byteOffset" : 34864
        },
        {
            "buffer" : 0,
            "byteLength" : 2688,
            "byteOffset" : 36544
        },
        {
            "buffer" : 0,
            "byteLength" : 2688,
            "byteOffset" : 39232
        },
        {
            "buffer" : 0,
            "byteLength" : 1792,
            "byteOffset" : 41920
        },
        {
            "buffer" : 0,
            "byteLength" : 984,
            "byteOffset" : 43712
        }
    ],
    "samplers" : [
        {
            "magFilter" : 9729,
            "minFilter" : 9987
        }
    ],
    "buffers" : [
        {
            "byteLength" : 44696,
            "uri" : "data:application/octet-stream;base64,"
        }
    ]
}
